<svg width="39" height="38" viewBox="0 0 39 38" fill="none" xmlns="http://www.w3.org/2000/svg">
<path fill-rule="evenodd" clip-rule="evenodd" d="M19.907 29.9303H19.9116C26.117 29.9303 31.1674 24.8813 31.17 18.6754C31.1711 15.6681 30.0012 12.8403 27.8755 10.713C25.7499 8.58563 22.9232 7.41334 19.9161 7.41215C13.706 7.41215 8.65539 12.4608 8.65294 18.6663C8.65213 20.7929 9.24729 22.8641 10.3742 24.6561L10.642 25.0818L9.50461 29.235L13.7657 28.1176L14.1768 28.3615C15.9054 29.387 17.8868 29.9295 19.907 29.9303ZM23.7743 20.4002C24.0847 20.5131 25.7486 21.3317 26.0871 21.501C26.153 21.534 26.2147 21.5638 26.2719 21.5914C26.5082 21.7055 26.6677 21.7826 26.7358 21.8962C26.8204 22.0373 26.8204 22.7148 26.5384 23.5052C26.2563 24.2954 24.9041 25.0168 24.2539 25.114C23.6707 25.2011 22.9329 25.2374 22.1221 24.98C21.6305 24.8239 21.0001 24.6158 20.1926 24.2672C17.0205 22.8979 14.8766 19.8248 14.4705 19.2427C14.4419 19.2018 14.422 19.1731 14.4108 19.1583L14.4079 19.1544C14.2282 18.9146 13.0289 17.3143 13.0289 15.6582C13.0289 14.0996 13.7947 13.2826 14.1472 12.9066C14.1714 12.8809 14.1935 12.8572 14.2134 12.8355C14.5237 12.4969 14.8903 12.4122 15.116 12.4122C15.3416 12.4122 15.5675 12.4143 15.7647 12.4241C15.789 12.4253 15.8143 12.4251 15.8404 12.425C16.0376 12.4238 16.2836 12.4224 16.5261 13.0049C16.6193 13.2287 16.7556 13.5604 16.8994 13.9103C17.1908 14.6195 17.513 15.4037 17.5697 15.5171C17.6543 15.6864 17.7107 15.8841 17.5979 16.1098C17.581 16.1436 17.5654 16.1754 17.5505 16.2059C17.4657 16.3791 17.4034 16.5063 17.2594 16.6744C17.203 16.7402 17.1447 16.8112 17.0864 16.8822C16.9698 17.0241 16.8532 17.1661 16.7518 17.2671C16.5823 17.4358 16.4059 17.6189 16.6033 17.9576C16.8008 18.2963 17.4801 19.4044 18.4862 20.3015C19.568 21.2661 20.5081 21.6738 20.9845 21.8803C21.0774 21.9206 21.1527 21.9532 21.2079 21.9808C21.5464 22.1503 21.7438 22.122 21.9412 21.8962C22.1386 21.6704 22.7872 20.9083 23.0129 20.5696C23.2386 20.2308 23.4641 20.2873 23.7743 20.4002Z" fill="#25D366"/>
<path fill-rule="evenodd" clip-rule="evenodd" d="M19.5 38C29.9934 38 38.5 29.4934 38.5 19C38.5 8.50659 29.9934 0 19.5 0C9.00659 0 0.5 8.50659 0.5 19C0.5 29.4934 9.00659 38 19.5 38ZM19.9115 5.12518C23.535 5.12666 26.936 6.53689 29.4933 9.0964C32.0509 11.6559 33.4584 15.058 33.457 18.6763C33.454 26.1424 27.377 32.2173 19.9116 32.2173H19.9061C17.639 32.2164 15.4115 31.6479 13.433 30.5691L6.25234 32.4521L8.17401 25.4351C6.98866 23.3817 6.365 21.052 6.36597 18.6654C6.36894 11.1993 12.4454 5.12518 19.9115 5.12518Z" fill="#25D366"/>
</svg>
