<svg width="38" height="38" viewBox="0 0 38 38" fill="none" xmlns="http://www.w3.org/2000/svg">
<g clip-path="url(#clip0_2050_37)">
<path d="M29.2 25.9828C28.8219 26.8563 28.3744 27.6603 27.8559 28.3994C27.1491 29.4071 26.5705 30.1046 26.1245 30.492C25.4331 31.1277 24.6924 31.4534 23.8992 31.4719C23.3298 31.4719 22.6431 31.3098 21.8438 30.9811C21.0418 30.654 20.3048 30.492 19.6309 30.492C18.9241 30.492 18.1661 30.654 17.3553 30.9811C16.5433 31.3098 15.8892 31.4811 15.389 31.4981C14.6284 31.5305 13.8702 31.1956 13.1135 30.492C12.6305 30.0707 12.0263 29.3485 11.3026 28.3254C10.5261 27.2328 9.88765 25.9659 9.38752 24.5215C8.85188 22.9613 8.58337 21.4506 8.58337 19.988C8.58337 18.3125 8.9454 16.8675 9.67053 15.6566C10.2404 14.684 10.9986 13.9167 11.9475 13.3534C12.8964 12.7902 13.9216 12.5032 15.0258 12.4848C15.6299 12.4848 16.4222 12.6717 17.4067 13.0389C18.3885 13.4074 19.0188 13.5943 19.2952 13.5943C19.5019 13.5943 20.2021 13.3758 21.3893 12.9402C22.5119 12.5362 23.4594 12.3689 24.2357 12.4348C26.339 12.6045 27.9192 13.4337 28.9701 14.9275C27.089 16.0672 26.1584 17.6636 26.1769 19.7116C26.1939 21.3067 26.7726 22.6342 27.9099 23.6882C28.4253 24.1773 29.0009 24.5554 29.6413 24.8239C29.5025 25.2267 29.3559 25.6125 29.2 25.9828ZM24.3761 7.00039C24.3761 8.25067 23.9193 9.41806 23.0088 10.4986C21.9101 11.7831 20.5811 12.5254 19.14 12.4082C19.1216 12.2583 19.111 12.1004 19.111 11.9345C19.111 10.7342 19.6335 9.44969 20.5614 8.39942C21.0246 7.86764 21.6138 7.42548 22.3283 7.07276C23.0412 6.7253 23.7156 6.53315 24.3498 6.50024C24.3684 6.66739 24.3761 6.83454 24.3761 7.00037V7.00039Z" fill="black"/>
</g>
<defs>
<clipPath id="clip0_2050_37">
<rect width="25" height="25" fill="white" transform="translate(6.5 6.5)"/>
</clipPath>
</defs>
</svg>
