<svg width="81" height="80" viewBox="0 0 81 80" fill="none" xmlns="http://www.w3.org/2000/svg">
<path d="M70.5 54.7333V66.52C70.5004 67.3639 70.1806 68.1766 69.6053 68.794C69.03 69.4114 68.2418 69.7876 67.4 69.8467C65.9444 69.9489 64.7556 70 63.8333 70C34.3767 70 10.5 46.1233 10.5 16.6667C10.5 15.7467 10.5511 14.5578 10.6533 13.1C10.7124 12.2581 11.0886 11.47 11.706 10.8947C12.3234 10.3194 13.1361 9.99962 13.98 10H25.7667C26.1801 9.99958 26.579 10.1529 26.8858 10.4301C27.1925 10.7073 27.3853 11.0886 27.4267 11.5C27.5022 12.2644 27.5733 12.8778 27.64 13.34C28.3024 17.9631 29.66 22.4595 31.6667 26.6767C31.9833 27.3433 31.7767 28.14 31.1767 28.5667L23.9833 33.7067C28.3824 43.9543 36.5491 52.121 46.7967 56.52L51.93 49.34C52.139 49.0456 52.4451 48.8344 52.7945 48.7435C53.1439 48.6527 53.5141 48.688 53.84 48.8433C58.0567 50.8463 62.5519 52.2004 67.1733 52.86C67.6356 52.9267 68.2467 52.9978 69.0067 53.0733C69.4175 53.1155 69.798 53.3086 70.0745 53.6153C70.351 53.922 70.5005 54.3204 70.5 54.7333Z" fill="#B2B2B2"/>
</svg>
