<svg width="81" height="80" viewBox="0 0 81 80" fill="none" xmlns="http://www.w3.org/2000/svg">
<path d="M63.8334 30.0003C63.8334 26.9361 63.2298 23.902 62.0572 21.071C60.8846 18.2401 59.1659 15.6679 56.9992 13.5012C54.8325 11.3345 52.2602 9.61575 49.4293 8.44314C46.5984 7.27053 43.5642 6.66699 40.5 6.66699C37.4358 6.66699 34.4017 7.27053 31.5707 8.44314C28.7398 9.61575 26.1676 11.3345 24.0009 13.5012C21.8342 15.6679 20.1154 18.2401 18.9428 21.071C17.7702 23.902 17.1667 26.9361 17.1667 30.0003C17.1667 34.6237 18.53 38.9237 20.85 42.5503H20.8234L40.5 73.3337L60.1767 42.5503H60.1534C62.5564 38.8057 63.8337 34.4497 63.8334 30.0003ZM40.5 40.0003C37.8479 40.0003 35.3043 38.9468 33.429 37.0714C31.5536 35.196 30.5 32.6525 30.5 30.0003C30.5 27.3482 31.5536 24.8046 33.429 22.9293C35.3043 21.0539 37.8479 20.0003 40.5 20.0003C43.1522 20.0003 45.6957 21.0539 47.5711 22.9293C49.4465 24.8046 50.5 27.3482 50.5 30.0003C50.5 32.6525 49.4465 35.196 47.5711 37.0714C45.6957 38.9468 43.1522 40.0003 40.5 40.0003Z" fill="#B2B2B2"/>
</svg>
