<svg width="66" height="66" viewBox="0 0 66 66" fill="none" xmlns="http://www.w3.org/2000/svg">
<rect x="5" y="5" width="56" height="56" rx="28" fill="#F4EBFF"/>
<rect x="5" y="5" width="56" height="56" rx="28" stroke="#F9F5FF" stroke-width="10"/>
<path d="M21.332 27.1665L30.8578 33.8345C31.6291 34.3745 32.0148 34.6445 32.4343 34.749C32.8049 34.8414 33.1925 34.8414 33.5631 34.749C33.9826 34.6445 34.3683 34.3745 35.1396 33.8345L44.6654 27.1665M26.932 42.3332H39.0654C41.0255 42.3332 42.0056 42.3332 42.7543 41.9517C43.4129 41.6161 43.9483 41.0807 44.2839 40.4221C44.6654 39.6734 44.6654 38.6934 44.6654 36.7332V29.2665C44.6654 27.3063 44.6654 26.3262 44.2839 25.5775C43.9483 24.919 43.4129 24.3835 42.7543 24.048C42.0056 23.6665 41.0255 23.6665 39.0654 23.6665H26.932C24.9718 23.6665 23.9918 23.6665 23.2431 24.048C22.5845 24.3835 22.0491 24.919 21.7135 25.5775C21.332 26.3262 21.332 27.3063 21.332 29.2665V36.7332C21.332 38.6934 21.332 39.6734 21.7135 40.4221C22.0491 41.0807 22.5845 41.6161 23.2431 41.9517C23.9918 42.3332 24.9718 42.3332 26.932 42.3332Z" stroke="#1F477A" stroke-width="2" stroke-linecap="round" stroke-linejoin="round"/>
</svg>
