<svg width="26" height="26" viewBox="0 0 26 26" fill="none" xmlns="http://www.w3.org/2000/svg">
<g clip-path="url(#clip0_2050_24)">
<path d="M25.5 13C25.5 6.09644 19.9036 0.5 13 0.5C6.09644 0.5 0.5 6.09644 0.5 13C0.5 19.239 5.07104 24.4104 11.0469 25.3481V16.6133H7.87305V13H11.0469V10.2461C11.0469 7.11328 12.9131 5.38281 15.7683 5.38281C17.1355 5.38281 18.5664 5.62695 18.5664 5.62695V8.70313H16.9902C15.4375 8.70313 14.9531 9.66675 14.9531 10.6563V13H18.4199L17.8657 16.6133H14.9531V25.3481C20.929 24.4104 25.5 19.239 25.5 13Z" fill="#1877F2"/>
<path d="M17.8657 16.6133L18.4199 13H14.9531V10.6562C14.9531 9.66772 15.4375 8.70312 16.9902 8.70312H18.5664V5.62695C18.5664 5.62695 17.136 5.38281 15.7683 5.38281C12.9131 5.38281 11.0469 7.11328 11.0469 10.2461V13H7.87305V16.6133H11.0469V25.3481C12.3411 25.5506 13.6589 25.5506 14.9531 25.3481V16.6133H17.8657Z" fill="white"/>
</g>
<defs>
<clipPath id="clip0_2050_24">
<rect width="25" height="25" fill="white" transform="translate(0.5 0.5)"/>
</clipPath>
</defs>
</svg>
