<svg width="26" height="26" viewBox="0 0 26 26" fill="none" xmlns="http://www.w3.org/2000/svg">
<g clip-path="url(#clip0_2050_42)">
<path d="M25.2563 13.2879C25.2563 12.4382 25.1874 11.5839 25.0404 10.748H13.25V15.5615H20.0018C19.7216 17.114 18.8214 18.4873 17.5032 19.36V22.4832H21.5313C23.8967 20.3061 25.2563 17.091 25.2563 13.2879Z" fill="#4285F4"/>
<path d="M13.25 25.5008C16.6213 25.5008 19.4644 24.3939 21.5359 22.4832L17.5078 19.3599C16.3871 20.1224 14.9403 20.5541 13.2546 20.5541C9.99355 20.5541 7.22853 18.354 6.23643 15.3961H2.07971V18.6158C4.2017 22.8369 8.52377 25.5008 13.25 25.5008Z" fill="#34A853"/>
<path d="M6.23181 15.3961C5.7082 13.8437 5.7082 12.1626 6.23181 10.6102V7.39044H2.07969C0.30677 10.9225 0.30677 15.0838 2.07969 18.6159L6.23181 15.3961Z" fill="#FBBC04"/>
<path d="M13.25 5.44756C15.0321 5.42 16.7545 6.09059 18.0452 7.32153L21.614 3.75273C19.3542 1.63073 16.3549 0.464098 13.25 0.500842C8.52377 0.500842 4.2017 3.16481 2.07971 7.39043L6.23183 10.6102C7.21934 7.64764 9.98895 5.44756 13.25 5.44756Z" fill="#EA4335"/>
</g>
<defs>
<clipPath id="clip0_2050_42">
<rect width="25" height="25" fill="white" transform="translate(0.5 0.5)"/>
</clipPath>
</defs>
</svg>
