<svg width="39" height="38" viewBox="0 0 39 38" fill="none" xmlns="http://www.w3.org/2000/svg">
<rect x="0.5" width="38" height="38" rx="19" fill="#0C131B" fill-opacity="0.7"/>
<path d="M28.0205 11.2734C27.4937 10.7465 26.8682 10.3285 26.1797 10.0433C25.4913 9.75811 24.7535 9.61133 24.0083 9.61133C23.2632 9.61133 22.5253 9.75811 21.8369 10.0433C21.1485 10.3285 20.523 10.7465 19.9961 11.2734L19.5 11.7695L19.0039 11.2734C18.4771 10.7465 17.8516 10.3285 17.1631 10.0433C16.4747 9.75811 15.7369 9.61133 14.9917 9.61133C14.2466 9.61133 13.5087 9.75811 12.8203 10.0433C12.1319 10.3285 11.5064 10.7465 10.9795 11.2734C9.27833 12.9741 8.9815 15.5942 10.1865 18.2827C11.6553 21.561 18.5342 27.8608 18.8262 28.1274C19.0103 28.2955 19.2507 28.3886 19.5 28.3886C19.7493 28.3886 19.9896 28.2955 20.1738 28.1274C20.4658 27.8608 27.3447 21.561 28.8135 18.2822C30.0186 15.5942 29.7217 12.9741 28.0205 11.2734ZM26.9893 17.4644C26.0195 19.6274 21.7402 23.915 19.5 26.0244C17.2598 23.915 12.9815 19.6289 12.0108 17.4648C11.6026 16.5522 10.8213 14.2598 12.3936 12.6875C13.0826 11.9984 14.0172 11.6113 14.9917 11.6113C15.9662 11.6113 16.9008 11.9984 17.5899 12.6875L18.793 13.8906C18.8858 13.9835 18.9961 14.0572 19.1174 14.1075C19.2387 14.1577 19.3687 14.1836 19.5 14.1836C19.6314 14.1836 19.7614 14.1577 19.8827 14.1075C20.004 14.0572 20.1142 13.9835 20.2071 13.8906L21.4102 12.6875C22.1103 12.0197 23.0407 11.6471 24.0083 11.6471C24.9759 11.6471 25.9063 12.0197 26.6065 12.6875C28.1787 14.2598 27.3975 16.5522 26.9893 17.4644Z" fill="white"/>
</svg>
