<svg width="39" height="38" viewBox="0 0 39 38" fill="none" xmlns="http://www.w3.org/2000/svg">
<rect x="0.5" width="38" height="38" rx="19" fill="#D2DAE2"/>
<path d="M30.4994 24.4022V28.724C30.4995 29.0334 30.3823 29.3314 30.1713 29.5578C29.9604 29.7842 29.6714 29.9221 29.3627 29.9438C28.829 29.9813 28.3931 30 28.0549 30C17.2542 30 8.49939 21.2452 8.49939 10.4444C8.49939 10.1071 8.51813 9.67119 8.55561 9.13667C8.57727 8.82799 8.71521 8.53901 8.94159 8.32806C9.16798 8.1171 9.46595 7.99986 9.77539 8H14.0972C14.2488 7.99985 14.395 8.05605 14.5075 8.15769C14.62 8.25933 14.6907 8.39916 14.7058 8.55C14.7335 8.8303 14.7596 9.05519 14.7841 9.22467C15.0269 10.9198 15.5247 12.5685 16.2605 14.1148C16.3766 14.3592 16.3008 14.6513 16.0808 14.8078L13.4433 16.6924C15.0563 20.4499 18.0507 23.4444 21.8082 25.0573L23.6904 22.4247C23.767 22.3167 23.8793 22.2393 24.0074 22.206C24.1355 22.1727 24.2712 22.1856 24.3907 22.2426C25.9369 22.977 27.5851 23.4735 29.2796 23.7153C29.4491 23.7398 29.6732 23.7659 29.9518 23.7936C30.1025 23.809 30.242 23.8798 30.3434 23.9923C30.4448 24.1047 30.4996 24.2508 30.4994 24.4022Z" fill="#1F477A"/>
</svg>
